<?xml version="1.0" encoding="UTF-8"?>
<svg width="97px" height="63px" viewBox="0 0 97 63" version="1.1" xmlns="http://www.w3.org/2000/svg" xmlns:xlink="http://www.w3.org/1999/xlink">
    <!-- Generator: Sketch 56.2 (81672) - https://sketch.com -->
    <title>Group 13</title>
    <desc>Created with Sketch.</desc>
    <g id="Desktop-Master" stroke="none" stroke-width="1" fill="none" fill-rule="evenodd" stroke-linecap="round" stroke-linejoin="round">
        <g id="arkea_projet_desktop" transform="translate(-672.000000, -4336.000000)" stroke="#E63135" stroke-width="2.5">
            <g id="rappel" transform="translate(295.000000, 4322.000000)">
                <g id="2" transform="translate(311.000000, 16.000000)">
                    <g id="Group-13" transform="translate(68.000000, 0.000000)">
                        <path d="M79.6267473,13.5013463 C79.6267473,20.8838829 73.754989,26.8691512 66.5124615,26.8691512 C59.2699341,26.8691512 53.3981758,20.8838829 53.3981758,13.5013463 C53.3981758,6.11880976 59.2699341,0.133541463 66.5124615,0.133541463 C73.754989,0.133541463 79.6267473,6.11880976 79.6267473,13.5013463 Z" id="Stroke-1"/>
                        <path d="M39.6051813,59.7885805 C42.3140824,47.2298 53.2950714,37.8299951 66.4301264,37.8299951 C79.5636978,37.8299951 90.5432033,47.2267756 93.2521044,59.7855561" id="Stroke-3"/>
                        <path d="M40.1339066,13.5013463 C40.1339066,20.8838829 34.2621484,26.8691512 27.0196209,26.8691512 C19.7770934,26.8691512 13.9053352,20.8838829 13.9053352,13.5013463 C13.9053352,6.11880976 19.7770934,0.133541463 27.0196209,0.133541463 C34.2621484,0.133541463 40.1339066,6.11880976 40.1339066,13.5013463 Z" id="Stroke-9"/>
                        <path d="M0.112340659,59.7885805 C2.81975824,47.2298 13.8022308,37.8299951 26.9358022,37.8299951 C34.6901429,37.8299951 41.6908571,41.1054098 46.6858571,46.3708732" id="Stroke-11"/>
                    </g>
                </g>
            </g>
        </g>
    </g>
</svg>