<?xml version="1.0" encoding="UTF-8"?>
<svg width="82px" height="93px" viewBox="0 0 82 93" version="1.1" xmlns="http://www.w3.org/2000/svg" xmlns:xlink="http://www.w3.org/1999/xlink">
    <!-- Generator: Sketch 56.2 (81672) - https://sketch.com -->
    <title>Group 13</title>
    <desc>Created with Sketch.</desc>
    <g id="Desktop-Master" stroke="none" stroke-width="1" fill="none" fill-rule="evenodd" stroke-linecap="round" stroke-linejoin="round">
        <g id="arkea_projet_desktop" transform="translate(-375.000000, -4321.000000)" stroke="#E63135" stroke-width="2.3">
            <g id="rappel" transform="translate(295.000000, 4322.000000)">
                <g id="1">
                    <g id="Group-13" transform="translate(81.000000, 0.000000)">
                        <path d="M32.3424762,70.1166375 C32.3424762,70.1166375 37.7735873,67.6128736 42.120254,65.6083458 C46.4669206,63.6038181 47.5539048,61.6296236 47.5539048,61.6296236 C47.5539048,61.6296236 55.759619,49.5443181 57.5094603,46.9508181 C59.2580317,44.3573181 61.2542222,40.7046792 64.5151746,42.0380819 C70.0986667,44.5077208 67.1818413,48.9009986 67.1818413,48.9009986 C67.1818413,48.9009986 57.783746,65.0054708 54.9875556,69.6591097 C52.1900952,74.3102208 48.2726349,76.3286514 45.1018413,77.6848042 C41.9323175,79.0422208 9.0472381,90.7369847 9.0472381,90.7369847 L0.952,73.3471375 C0.952,73.3471375 2.76533333,68.6214569 11.2846984,64.6945542 C12.9367619,63.9311653 15.2427937,62.7633319 25.2783492,61.1834708 C27.1716825,60.9408042 31.4726349,60.4289292 38.3412063,57.2616236 C39.7304127,56.6195681 42.5964444,55.4037069 44.6624762,56.5538458 C46.7285079,57.7027208 47.2021587,59.0601375 47.1793016,61.2782625" id="Stroke-1"/>
                        <path d="M43.8430476,56.2237181 C43.8430476,56.2237181 52.2176508,45.4503292 53.1433651,44.6022597 C54.0690794,43.7554542 55.9662222,41.3755514 59.9725714,43.5115236" id="Stroke-3"/>
                        <path d="M35.5245714,58.4750833 C35.5245714,58.4750833 44.103619,49.4534444 45.8013968,47.8836944 C47.4991746,46.3126806 49.6756825,44.4977361 52.3334603,45.5164306" id="Stroke-5"/>
                        <path d="M47.5706667,21.569275 C47.5706667,21.569275 42.1408254,24.0730389 37.7941587,26.0775667 C33.4474921,28.0820944 32.3592381,30.0562889 32.3592381,30.0562889 C32.3592381,30.0562889 24.1535238,42.1415944 22.4049524,44.7350944 C20.6551111,47.3285944 18.6589206,50.9812333 15.3979683,49.6478306 C9.81447619,47.1781917 12.7313016,42.7849139 12.7313016,42.7849139 C12.7313016,42.7849139 22.1293968,26.6804417 24.9268571,22.0268028 C27.7230476,17.3756917 31.6417778,15.3572611 34.8113016,14.0011083 C37.9808254,12.6436917 70.8659048,0.948927778 70.8659048,0.948927778 L78.9611429,18.338775 C78.9611429,18.338775 77.1478095,23.0644556 68.6284444,26.9926222 C66.9776508,27.7547472 64.6703492,28.9225806 54.6347937,30.5024417 C52.7427302,30.7451083 48.4405079,31.2569833 41.5732063,34.4242889 C40.1827302,35.0663444 37.3166984,36.2822056 35.2506667,35.1320667 C33.1846349,33.9831917 32.7109841,32.625775 32.7338413,30.40765" id="Stroke-7"/>
                        <path d="M36.0713651,35.4621944 C36.0713651,35.4621944 27.6954921,46.2355833 26.7710476,47.0836528 C25.8440635,47.9304583 23.9469206,50.3103611 19.9418413,48.1743889" id="Stroke-9"/>
                        <path d="M44.3885714,33.2120931 C44.3885714,33.2120931 35.8095238,42.2324681 34.111746,43.8022181 C32.4152381,45.3732319 30.2387302,47.1881764 27.5796825,46.1694819" id="Stroke-11"/>
                    </g>
                </g>
            </g>
        </g>
    </g>
</svg>