<?xml version="1.0" encoding="UTF-8"?>
<svg width="79px" height="92px" viewBox="0 0 79 92" version="1.1" xmlns="http://www.w3.org/2000/svg" xmlns:xlink="http://www.w3.org/1999/xlink">
    <!-- Generator: Sketch 56.2 (81672) - https://sketch.com -->
    <title>Group 5 Copy 2</title>
    <desc>Created with Sketch.</desc>
    <g id="Desktop-Master" stroke="none" stroke-width="1" fill="none" fill-rule="evenodd" stroke-linecap="round" stroke-linejoin="round">
        <g id="arkea_projet_desktop" transform="translate(-986.000000, -4321.000000)" stroke="#E63135" stroke-width="2.4">
            <g id="rappel" transform="translate(295.000000, 4322.000000)">
                <g id="3" transform="translate(590.000000, 1.000000)">
                    <g id="Group-5-Copy-2" transform="translate(103.000000, 0.000000)">
                        <polygon id="Stroke-1" points="3.02506897 88.3905522 7.05148276 88.3905522 7.05148276 10.0354776 3.02506897 10.0354776"/>
                        <path d="M10.0683345,5.0309403 C10.0683345,7.80616418 7.81574828,10.0548209 5.03867931,10.0548209 C2.26026552,10.0548209 0.00902413793,7.80616418 0.00902413793,5.0309403 C0.00902413793,2.2570597 2.26026552,0.00840298507 5.03867931,0.00840298507 C7.81574828,0.00840298507 10.0683345,2.2570597 10.0683345,5.0309403 Z" id="Stroke-3"/>
                        <path d="M7.05161724,50.6382388 C7.05161724,50.6382388 16.4465828,44.5222687 26.6861,44.5222687 C33.441169,44.5222687 37.770169,47.157791 44.2092034,50.1103284 C50.6482379,53.0628657 65.9537207,57.3855522 75.7709621,47.5809254 L75.7709621,40.3701791 L75.7709621,6.73570149 C65.9537207,16.5416716 50.6482379,12.2176418 44.2092034,9.26644776 C37.770169,6.31391045 33.441169,3.67838806 26.6861,3.67838806 C16.4465828,3.67838806 7.05161724,9.79435821 7.05161724,9.79435821 L7.05161724,50.6382388 Z" id="Stroke-4"/>
                    </g>
                </g>
            </g>
        </g>
    </g>
</svg>